<svg width="36" height="18" viewBox="0 0 36 18" fill="none" xmlns="http://www.w3.org/2000/svg">
<path d="M5.56374 12.06C4.61174 12.06 3.78374 11.888 3.07974 11.544C2.37574 11.192 1.83574 10.696 1.45974 10.056C1.08374 9.416 0.895735 8.672 0.895735 7.824C0.895735 6.648 1.11574 5.604 1.55574 4.692C2.00374 3.78 2.60774 3.076 3.36774 2.58C4.12774 2.076 4.97174 1.824 5.89974 1.824C6.76374 1.824 7.41974 2.048 7.86774 2.496C8.31574 2.936 8.53974 3.52 8.53974 4.248C8.53974 4.736 8.45174 5.128 8.27574 5.424C8.10774 5.72 7.86374 5.868 7.54374 5.868C7.31974 5.868 7.14374 5.816 7.01574 5.712C6.88774 5.608 6.82374 5.456 6.82374 5.256C6.82374 5.184 6.83974 5.052 6.87174 4.86C6.91974 4.62 6.94374 4.428 6.94374 4.284C6.94374 3.556 6.55574 3.192 5.77974 3.192C5.25174 3.192 4.74774 3.364 4.26774 3.708C3.78774 4.052 3.39974 4.56 3.10374 5.232C2.80774 5.896 2.65974 6.688 2.65974 7.608C2.65974 8.568 2.92774 9.312 3.46374 9.84C3.99974 10.36 4.79174 10.62 5.83974 10.62C6.35974 10.62 6.88374 10.556 7.41174 10.428C7.94774 10.292 8.53974 10.088 9.18774 9.816C9.30774 9.768 9.40774 9.744 9.48774 9.744C9.61574 9.744 9.71174 9.792 9.77574 9.888C9.83974 9.984 9.87174 10.108 9.87174 10.26C9.87174 10.748 9.60774 11.108 9.07974 11.34C8.51174 11.588 7.91974 11.772 7.30374 11.892C6.69574 12.004 6.11574 12.06 5.56374 12.06ZM15.6531 8.316C15.7571 8.316 15.8371 8.368 15.8931 8.472C15.9491 8.576 15.9771 8.708 15.9771 8.868C15.9771 9.252 15.8611 9.48 15.6291 9.552C15.1491 9.72 14.6211 9.816 14.0451 9.84C13.8931 10.512 13.5931 11.052 13.1451 11.46C12.6971 11.86 12.1891 12.06 11.6211 12.06C11.1411 12.06 10.7291 11.944 10.3851 11.712C10.0491 11.48 9.79311 11.172 9.61711 10.788C9.44111 10.404 9.35311 9.988 9.35311 9.54C9.35311 8.932 9.46911 8.392 9.70111 7.92C9.93311 7.44 10.2531 7.068 10.6611 6.804C11.0691 6.532 11.5211 6.396 12.0171 6.396C12.6251 6.396 13.1131 6.608 13.4811 7.032C13.8571 7.448 14.0771 7.964 14.1411 8.58C14.5171 8.556 14.9651 8.476 15.4851 8.34C15.5491 8.324 15.6051 8.316 15.6531 8.316ZM11.7171 10.788C11.9731 10.788 12.1931 10.684 12.3771 10.476C12.5691 10.268 12.6971 9.968 12.7611 9.576C12.5131 9.408 12.3211 9.188 12.1851 8.916C12.0571 8.644 11.9931 8.356 11.9931 8.052C11.9931 7.924 12.0051 7.796 12.0291 7.668H11.9691C11.6491 7.668 11.3811 7.824 11.1651 8.136C10.9571 8.44 10.8531 8.872 10.8531 9.432C10.8531 9.872 10.9371 10.208 11.1051 10.44C11.2811 10.672 11.4851 10.788 11.7171 10.788ZM22.4832 9.324C22.5872 9.324 22.6672 9.372 22.7232 9.468C22.7872 9.564 22.8192 9.696 22.8192 9.864C22.8192 10.184 22.7432 10.432 22.5912 10.608C22.2632 11.008 21.9032 11.352 21.5112 11.64C21.1192 11.92 20.7312 12.06 20.3472 12.06C19.7392 12.06 19.2752 11.704 18.9552 10.992C18.6192 11.416 18.3232 11.7 18.0672 11.844C17.8192 11.988 17.5272 12.06 17.1912 12.06C16.7032 12.06 16.2992 11.88 15.9792 11.52C15.6672 11.152 15.5112 10.676 15.5112 10.092C15.5112 9.452 15.6472 8.86 15.9192 8.316C16.1912 7.764 16.5632 7.316 17.0352 6.972C17.5152 6.62 18.0512 6.412 18.6432 6.348C18.7952 4.796 19.0832 3.472 19.5072 2.376C19.9392 1.272 20.5032 0.719999 21.1992 0.719999C21.5432 0.719999 21.8272 0.875999 22.0512 1.188C22.2832 1.5 22.3992 1.972 22.3992 2.604C22.3992 3.5 22.1792 4.548 21.7392 5.748C21.2992 6.948 20.7112 8.18 19.9752 9.444C20.0072 9.908 20.0752 10.24 20.1792 10.44C20.2912 10.64 20.4312 10.74 20.5992 10.74C20.8152 10.74 21.0352 10.644 21.2592 10.452C21.4832 10.26 21.7832 9.94 22.1592 9.492C22.2552 9.38 22.3632 9.324 22.4832 9.324ZM21.0672 1.896C20.9152 1.896 20.7632 2.168 20.6112 2.712C20.4592 3.248 20.3272 3.952 20.2152 4.824C20.1112 5.696 20.0352 6.608 19.9872 7.56C20.8832 5.608 21.3312 4.04 21.3312 2.856C21.3312 2.552 21.3032 2.316 21.2472 2.148C21.1992 1.98 21.1392 1.896 21.0672 1.896ZM17.6112 10.848C17.7632 10.848 17.9152 10.788 18.0672 10.668C18.2192 10.54 18.4112 10.308 18.6432 9.972C18.5632 9.54 18.5232 9.056 18.5232 8.52C18.5232 8.328 18.5312 8.016 18.5472 7.584C18.1072 7.72 17.7392 8.016 17.4432 8.472C17.1552 8.92 17.0112 9.42 17.0112 9.972C17.0112 10.556 17.2112 10.848 17.6112 10.848ZM24.135 5.616C23.799 5.616 23.547 5.54 23.379 5.388C23.211 5.228 23.127 5.008 23.127 4.728C23.127 4.448 23.235 4.216 23.451 4.032C23.675 3.84 23.951 3.744 24.279 3.744C24.575 3.744 24.815 3.816 24.999 3.96C25.183 4.104 25.275 4.308 25.275 4.572C25.275 4.892 25.171 5.148 24.963 5.34C24.755 5.524 24.479 5.616 24.135 5.616ZM24.039 12.06C23.519 12.06 23.139 11.876 22.899 11.508C22.667 11.14 22.551 10.652 22.551 10.044C22.551 9.684 22.595 9.224 22.683 8.664C22.779 8.096 22.899 7.568 23.043 7.08C23.115 6.824 23.211 6.648 23.331 6.552C23.451 6.456 23.643 6.408 23.907 6.408C24.315 6.408 24.519 6.544 24.519 6.816C24.519 7.016 24.443 7.48 24.291 8.208C24.099 9.088 24.003 9.684 24.003 9.996C24.003 10.236 24.035 10.42 24.099 10.548C24.163 10.676 24.271 10.74 24.423 10.74C24.567 10.74 24.747 10.64 24.963 10.44C25.179 10.24 25.467 9.924 25.827 9.492C25.923 9.38 26.031 9.324 26.151 9.324C26.255 9.324 26.335 9.372 26.391 9.468C26.455 9.564 26.487 9.696 26.487 9.864C26.487 10.184 26.411 10.432 26.259 10.608C25.467 11.576 24.727 12.06 24.039 12.06ZM30.9069 8.64C31.1309 8.64 31.2429 8.808 31.2429 9.144C31.2429 9.776 30.7469 10.092 29.7549 10.092C29.5629 10.092 29.2869 10.056 28.9269 9.984C29.0309 10.48 29.1149 11.032 29.1789 11.64C29.2509 12.24 29.2869 12.736 29.2869 13.128C29.2869 13.992 29.1469 14.652 28.8669 15.108C28.5869 15.564 28.2189 15.792 27.7629 15.792C27.1869 15.792 26.7749 15.384 26.5269 14.568C26.2869 13.752 26.1669 12.52 26.1669 10.872C26.1669 9.336 26.3309 7.78 26.6589 6.204C26.9949 4.62 27.4509 3.312 28.0269 2.28C28.6109 1.24 29.2509 0.719999 29.9469 0.719999C30.3229 0.719999 30.6149 0.887999 30.8229 1.224C31.0389 1.56 31.1469 2.012 31.1469 2.58C31.1469 4.46 30.0229 6.508 27.7749 8.724C27.6949 9.508 27.6549 10.196 27.6549 10.788C27.6549 11.612 27.6829 12.456 27.7389 13.32C27.7949 14.192 27.8869 14.628 28.0149 14.628C28.2549 14.628 28.3749 14.212 28.3749 13.38C28.3749 12.756 28.3309 12.152 28.2429 11.568C28.1629 10.984 28.0509 10.368 27.9069 9.72C27.8989 9.616 27.9309 9.484 28.0029 9.324C28.0829 9.164 28.1789 9.024 28.2909 8.904C28.4029 8.784 28.5029 8.724 28.5909 8.724C28.7509 8.724 28.9429 8.732 29.1669 8.748C29.2389 8.756 29.3229 8.76 29.4189 8.76C29.7389 8.76 30.0949 8.732 30.4869 8.676C30.5509 8.668 30.6189 8.66 30.6909 8.652C30.7629 8.644 30.8349 8.64 30.9069 8.64ZM29.6949 1.908C29.5509 1.908 29.3709 2.152 29.1549 2.64C28.9469 3.128 28.7389 3.776 28.5309 4.584C28.3229 5.384 28.1429 6.232 27.9909 7.128C28.6309 6.4 29.1229 5.644 29.4669 4.86C29.8109 4.068 29.9869 3.328 29.9949 2.64C29.9949 2.152 29.8949 1.908 29.6949 1.908ZM35.2576 6.408C35.4416 6.408 35.5696 6.432 35.6416 6.48C35.7136 6.528 35.7496 6.608 35.7496 6.72C35.7496 6.912 35.6456 7.596 35.4376 8.772C35.2536 9.9 35.1456 10.568 35.1136 10.776C34.8176 12.832 34.4096 14.46 33.8896 15.66C33.3696 16.86 32.6776 17.46 31.8136 17.46C31.4056 17.46 31.0736 17.332 30.8176 17.076C30.5616 16.828 30.4336 16.5 30.4336 16.092C30.4336 15.716 30.5176 15.332 30.6856 14.94C30.8616 14.548 31.1816 14.096 31.6456 13.584C32.1176 13.08 32.7816 12.5 33.6376 11.844L33.6736 11.568C33.7296 11.272 33.7936 10.848 33.8656 10.296C33.7056 10.872 33.4816 11.312 33.1936 11.616C32.9056 11.912 32.6016 12.06 32.2816 12.06C31.9216 12.06 31.6256 11.896 31.3936 11.568C31.1696 11.232 31.0576 10.816 31.0576 10.32C31.0576 9.72 31.0976 9.172 31.1776 8.676C31.2576 8.172 31.3896 7.64 31.5736 7.08C31.6536 6.84 31.7656 6.668 31.9096 6.564C32.0536 6.46 32.2816 6.408 32.5936 6.408C32.7696 6.408 32.8896 6.436 32.9536 6.492C33.0256 6.548 33.0616 6.632 33.0616 6.744C33.0616 6.808 33.0176 7.024 32.9296 7.392C32.8496 7.688 32.7856 7.956 32.7376 8.196C32.6736 8.524 32.6176 8.84 32.5696 9.144C32.5216 9.44 32.4976 9.684 32.4976 9.876C32.4976 10.18 32.5816 10.332 32.7496 10.332C32.8696 10.332 33.0176 10.212 33.1936 9.972C33.3776 9.732 33.5696 9.368 33.7696 8.88C33.9776 8.392 34.1776 7.792 34.3696 7.08C34.4336 6.84 34.5296 6.668 34.6576 6.564C34.7936 6.46 34.9936 6.408 35.2576 6.408ZM31.9456 16.296C32.1456 16.296 32.3696 16.064 32.6176 15.6C32.8656 15.136 33.1136 14.364 33.3616 13.284C32.7456 13.804 32.2976 14.276 32.0176 14.7C31.7456 15.132 31.6096 15.508 31.6096 15.828C31.6096 15.964 31.6336 16.076 31.6816 16.164C31.7376 16.252 31.8256 16.296 31.9456 16.296Z" fill="#2563EB"/>
</svg>
